<svg width="100%" height="100%" viewBox="0 0 17 20" fill="none" xmlns="http://www.w3.org/2000/svg">
  <g filter="url(#filter0_ii_5868_14732)">
    <path d="M5.45312 13.1055H11.2372V19.2514C11.2372 19.6083 10.874 19.8503 10.5446 19.7128L9.5005 19.2771C8.76116 18.9686 7.92913 18.9686 7.18979 19.2771L6.14568 19.7128C5.81631 19.8503 5.45312 19.6083 5.45312 19.2514V13.1055Z" fill="url(#paint0_linear_5868_14732)"/>
  </g>
  <g filter="url(#filter1_i_5868_14732)">
    <path d="M7.50055 0.781695C7.8958 0.358788 8.56647 0.358788 8.96172 0.781694L10.2833 2.19575C10.4805 2.40667 10.7591 2.52211 11.0477 2.51236L12.9821 2.44698C13.5606 2.42743 14.0348 2.90166 14.0153 3.48019L13.9499 5.41459C13.9402 5.70313 14.0556 5.98181 14.2665 6.17895L15.6806 7.50055C16.1035 7.8958 16.1035 8.56647 15.6806 8.96172L14.2665 10.2833C14.0556 10.4805 13.9402 10.7591 13.9499 11.0477L14.0153 12.9821C14.0348 13.5606 13.5606 14.0348 12.9821 14.0153L11.0477 13.9499C10.7591 13.9402 10.4805 14.0556 10.2833 14.2665L8.96172 15.6806C8.56647 16.1035 7.89581 16.1035 7.50055 15.6806L6.17895 14.2665C5.98181 14.0556 5.70313 13.9402 5.41459 13.9499L3.48019 14.0153C2.90166 14.0348 2.42743 13.5606 2.44698 12.9821L2.51236 11.0477C2.52211 10.7591 2.40667 10.4805 2.19575 10.2833L0.781695 8.96172C0.358788 8.56647 0.358788 7.89581 0.781694 7.50055L2.19575 6.17895C2.40667 5.98181 2.52211 5.70313 2.51236 5.41459L2.44698 3.48019C2.42743 2.90166 2.90166 2.42743 3.48019 2.44698L5.41459 2.51236C5.70313 2.52211 5.98181 2.40667 6.17895 2.19575L7.50055 0.781695Z" fill="url(#paint1_linear_5868_14732)"/>
  </g>
  <g filter="url(#filter2_i_5868_14732)">
    <path d="M14.2376 8.23307C14.2376 11.5504 11.5484 14.2396 8.23111 14.2396C4.91381 14.2396 2.22461 11.5504 2.22461 8.23307C2.22461 4.91577 4.91381 2.22656 8.23111 2.22656C11.5484 2.22656 14.2376 4.91577 14.2376 8.23307ZM3.11558 8.23307C3.11558 11.0583 5.40588 13.3486 8.23111 13.3486C11.0563 13.3486 13.3466 11.0583 13.3466 8.23307C13.3466 5.40784 11.0563 3.11753 8.23111 3.11753C5.40588 3.11753 3.11558 5.40784 3.11558 8.23307Z" fill="#FFCE6C"/>
  </g>
  <g filter="url(#filter3_ii_5868_14732)">
    <circle cx="8.28643" cy="8.28741" r="5.2835" fill="#F1C26D"/>
  </g>
  <g filter="url(#filter4_i_5868_14732)">
    <path d="M7.36275 6.20425C7.68389 5.43211 8.77771 5.43211 9.09886 6.20425C9.23425 6.52976 9.54037 6.75217 9.89179 6.78034C10.7254 6.84717 11.0634 7.88745 10.4283 8.43148C10.1605 8.66083 10.0436 9.0207 10.1254 9.36362C10.3194 10.1771 9.43452 10.82 8.72086 10.3841C8.42 10.2003 8.04161 10.2003 7.74075 10.3841C7.02708 10.82 6.14217 10.1771 6.3362 9.36362C6.418 9.0207 6.30107 8.66083 6.03333 8.43148C5.39823 7.88745 5.73623 6.84717 6.56982 6.78034C6.92124 6.75217 7.22736 6.52976 7.36275 6.20425Z" fill="url(#paint2_radial_5868_14732)"/>
  </g>
  <defs>
    <filter id="filter0_ii_5868_14732" x="5.45312" y="13.1055" width="7.78418" height="8.64453" filterUnits="userSpaceOnUse" color-interpolation-filters="sRGB">
      <feFlood flood-opacity="0" result="BackgroundImageFix"/>
      <feBlend mode="normal" in="SourceGraphic" in2="BackgroundImageFix" result="shape"/>
      <feColorMatrix in="SourceAlpha" type="matrix" values="0 0 0 0 0 0 0 0 0 0 0 0 0 0 0 0 0 0 127 0" result="hardAlpha"/>
      <feOffset dy="2"/>
      <feGaussianBlur stdDeviation="3"/>
      <feComposite in2="hardAlpha" operator="arithmetic" k2="-1" k3="1"/>
      <feColorMatrix type="matrix" values="0 0 0 0 0 0 0 0 0 0 0 0 0 0 0 0 0 0 0.15 0"/>
      <feBlend mode="normal" in2="shape" result="effect1_innerShadow_5868_14732"/>
      <feColorMatrix in="SourceAlpha" type="matrix" values="0 0 0 0 0 0 0 0 0 0 0 0 0 0 0 0 0 0 127 0" result="hardAlpha"/>
      <feOffset dx="2"/>
      <feGaussianBlur stdDeviation="3"/>
      <feComposite in2="hardAlpha" operator="arithmetic" k2="-1" k3="1"/>
      <feColorMatrix type="matrix" values="0 0 0 0 0 0 0 0 0 0 0 0 0 0 0 0 0 0 0.15 0"/>
      <feBlend mode="normal" in2="effect1_innerShadow_5868_14732" result="effect2_innerShadow_5868_14732"/>
    </filter>
    <filter id="filter1_i_5868_14732" x="0.464844" y="0.464844" width="15.5332" height="17.5312" filterUnits="userSpaceOnUse" color-interpolation-filters="sRGB">
      <feFlood flood-opacity="0" result="BackgroundImageFix"/>
      <feBlend mode="normal" in="SourceGraphic" in2="BackgroundImageFix" result="shape"/>
      <feColorMatrix in="SourceAlpha" type="matrix" values="0 0 0 0 0 0 0 0 0 0 0 0 0 0 0 0 0 0 127 0" result="hardAlpha"/>
      <feOffset dy="2"/>
      <feGaussianBlur stdDeviation="4"/>
      <feComposite in2="hardAlpha" operator="arithmetic" k2="-1" k3="1"/>
      <feColorMatrix type="matrix" values="0 0 0 0 0 0 0 0 0 0 0 0 0 0 0 0 0 0 0.08 0"/>
      <feBlend mode="normal" in2="shape" result="effect1_innerShadow_5868_14732"/>
    </filter>
    <filter id="filter2_i_5868_14732" x="2.22461" y="2.22656" width="12.0127" height="16.0117" filterUnits="userSpaceOnUse" color-interpolation-filters="sRGB">
      <feFlood flood-opacity="0" result="BackgroundImageFix"/>
      <feBlend mode="normal" in="SourceGraphic" in2="BackgroundImageFix" result="shape"/>
      <feColorMatrix in="SourceAlpha" type="matrix" values="0 0 0 0 0 0 0 0 0 0 0 0 0 0 0 0 0 0 127 0" result="hardAlpha"/>
      <feOffset dy="4"/>
      <feGaussianBlur stdDeviation="2"/>
      <feComposite in2="hardAlpha" operator="arithmetic" k2="-1" k3="1"/>
      <feColorMatrix type="matrix" values="0 0 0 0 0.929065 0 0 0 0 0.697673 0 0 0 0 0.234888 0 0 0 0.5 0"/>
      <feBlend mode="normal" in2="shape" result="effect1_innerShadow_5868_14732"/>
    </filter>
    <filter id="filter3_ii_5868_14732" x="-0.99707" y="3.00391" width="14.5674" height="14.5664" filterUnits="userSpaceOnUse" color-interpolation-filters="sRGB">
      <feFlood flood-opacity="0" result="BackgroundImageFix"/>
      <feBlend mode="normal" in="SourceGraphic" in2="BackgroundImageFix" result="shape"/>
      <feColorMatrix in="SourceAlpha" type="matrix" values="0 0 0 0 0 0 0 0 0 0 0 0 0 0 0 0 0 0 127 0" result="hardAlpha"/>
      <feOffset dy="4"/>
      <feGaussianBlur stdDeviation="10"/>
      <feComposite in2="hardAlpha" operator="arithmetic" k2="-1" k3="1"/>
      <feColorMatrix type="matrix" values="0 0 0 0 0.837399 0 0 0 0 0.550014 0 0 0 0 0.0302759 0 0 0 0.5 0"/>
      <feBlend mode="normal" in2="shape" result="effect1_innerShadow_5868_14732"/>
      <feColorMatrix in="SourceAlpha" type="matrix" values="0 0 0 0 0 0 0 0 0 0 0 0 0 0 0 0 0 0 127 0" result="hardAlpha"/>
      <feOffset dx="-4"/>
      <feGaussianBlur stdDeviation="10"/>
      <feComposite in2="hardAlpha" operator="arithmetic" k2="-1" k3="1"/>
      <feColorMatrix type="matrix" values="0 0 0 0 0.839216 0 0 0 0 0.54902 0 0 0 0 0.0313726 0 0 0 0.5 0"/>
      <feBlend mode="normal" in2="effect1_innerShadow_5868_14732" result="effect2_innerShadow_5868_14732"/>
    </filter>
    <filter id="filter4_i_5868_14732" x="5.70312" y="5.625" width="5.05469" height="6.89844" filterUnits="userSpaceOnUse" color-interpolation-filters="sRGB">
      <feFlood flood-opacity="0" result="BackgroundImageFix"/>
      <feBlend mode="normal" in="SourceGraphic" in2="BackgroundImageFix" result="shape"/>
      <feColorMatrix in="SourceAlpha" type="matrix" values="0 0 0 0 0 0 0 0 0 0 0 0 0 0 0 0 0 0 127 0" result="hardAlpha"/>
      <feOffset dy="2"/>
      <feGaussianBlur stdDeviation="5"/>
      <feComposite in2="hardAlpha" operator="arithmetic" k2="-1" k3="1"/>
      <feColorMatrix type="matrix" values="0 0 0 0 0 0 0 0 0 0 0 0 0 0 0 0 0 0 0.15 0"/>
      <feBlend mode="normal" in2="shape" result="effect1_innerShadow_5868_14732"/>
    </filter>
    <linearGradient id="paint0_linear_5868_14732" x1="8.34515" y1="13.5365" x2="8.34515" y2="18.795" gradientUnits="userSpaceOnUse">
      <stop stop-color="#AB241A"/>
      <stop offset="1" stop-color="#E84651"/>
    </linearGradient>
    <linearGradient id="paint1_linear_5868_14732" x1="0.658491" y1="1.89316" x2="12.8406" y2="13.5814" gradientUnits="userSpaceOnUse">
      <stop stop-color="#FFC756"/>
      <stop offset="0.673559" stop-color="#FCB82E"/>
      <stop offset="1" stop-color="#FCB82E"/>
    </linearGradient>
    <radialGradient id="paint2_radial_5868_14732" cx="0" cy="0" r="1" gradientUnits="userSpaceOnUse" gradientTransform="translate(8.2308 8.23276) rotate(90) scale(4.11557)">
      <stop stop-color="#F8B24A"/>
      <stop offset="1" stop-color="#F6A01D"/>
    </radialGradient>
  </defs>
</svg>
